<svg xmlns="http://www.w3.org/2000/svg" width="222" height="222" viewBox="0 0 222 222"><defs><clipPath id="njkya"><path fill="#fff" d="M161.997 111c32.209 8.57 22.453 15.482-7.508 14.228 24.883 17.001 28.65 28.35-2.23 15.957 21.19 25.802 9.273 25.678-14.39 7.059 10.346 28.377 6.808 39.854-11.106 11.605 2.275 33.363-7.252 26.253-15.763-2.819-8.511 29.072-18.038 36.182-15.763 2.819-17.914 28.25-21.452 16.772-11.107-11.605-23.662 18.619-35.578 18.743-14.39-7.059-30.88 12.394-27.112 1.045-2.23-15.956-29.96 1.253-39.716-5.66-7.507-14.23-32.209-8.57-22.453-15.482 7.507-14.228-24.882-17.001-28.65-28.35 2.23-15.957-21.188-25.802-9.272-25.677 14.39-7.058C73.785 45.379 77.322 33.9 95.237 62.15 92.962 28.788 102.49 35.897 111 64.969c8.51-29.072 18.038-36.181 15.762-2.818 17.915-28.25 21.453-16.773 11.108 11.605 23.662-18.62 35.578-18.744 14.39 7.058 30.88-12.393 27.112-1.044 2.23 15.957 29.96-1.254 39.716 5.659 7.507 14.229z"/></clipPath></defs><g><g><path fill="none" stroke="#d4cec4" stroke-miterlimit="20" stroke-width="4" d="M161.997 111c32.209 8.57 22.453 15.482-7.508 14.228 24.883 17.001 28.65 28.35-2.23 15.957 21.19 25.802 9.273 25.678-14.39 7.059 10.346 28.377 6.808 39.854-11.106 11.605 2.275 33.363-7.252 26.253-15.763-2.819-8.511 29.072-18.038 36.182-15.763 2.819-17.914 28.25-21.452 16.772-11.107-11.605-23.662 18.619-35.578 18.743-14.39-7.059-30.88 12.394-27.112 1.045-2.23-15.956-29.96 1.253-39.716-5.66-7.507-14.23-32.209-8.57-22.453-15.482 7.507-14.228-24.882-17.001-28.65-28.35 2.23-15.957-21.188-25.802-9.272-25.677 14.39-7.058C73.785 45.379 77.322 33.9 95.237 62.15 92.962 28.788 102.49 35.897 111 64.969c8.51-29.072 18.038-36.181 15.762-2.818 17.915-28.25 21.453-16.773 11.108 11.605 23.662-18.62 35.578-18.744 14.39 7.058 30.88-12.393 27.112-1.044 2.23 15.957 29.96-1.254 39.716 5.659 7.507 14.229z" clip-path="url(&quot;#njkya&quot;)"/></g></g></svg>